Daubenton.ufo
<glyph name="two" format="1">
  <advance width="567"/>
  <unicode hex="0032"/>
  <outline>
    <contour>
      <point x="461" y="66" type="line"/>
      <point x="458" y="64" type="line"/>
      <point x="162" y="64" type="line"/>
      <point x="170" y="78"/>
      <point x="377" y="402"/>
      <point x="396" y="433" type="curve" smooth="yes"/>
      <point x="414" y="463"/>
      <point x="434" y="511"/>
      <point x="434" y="547" type="curve" smooth="yes"/>
      <point x="434" y="643"/>
      <point x="334" y="710"/>
      <point x="225" y="710" type="curve" smooth="yes"/>
      <point x="181" y="710"/>
      <point x="141" y="698"/>
      <point x="108" y="677" type="curve"/>
      <point x="86" y="691" type="line"/>
      <point x="120" y="580" type="line"/>
      <point x="139" y="621"/>
      <point x="185" y="649"/>
      <point x="239" y="649" type="curve" smooth="yes"/>
      <point x="310" y="649"/>
      <point x="367" y="600"/>
      <point x="367" y="539" type="curve" smooth="yes"/>
      <point x="367" y="526"/>
      <point x="365" y="514"/>
      <point x="360" y="503" type="curve"/>
      <point x="45" y="-2" type="line"/>
      <point x="520" y="-2" type="line"/>
      <point x="520" y="125" type="line"/>
    </contour>
  </outline>
</glyph>
<glyph name="eight" format="1">
  <advance width="572"/>
  <unicode hex="0038"/>
  <outline>
    <contour>
      <point x="410" y="396" type="curve"/>
      <point x="460" y="427"/>
      <point x="493" y="479"/>
      <point x="493" y="537" type="curve" smooth="yes"/>
      <point x="493" y="633"/>
      <point x="404" y="710"/>
      <point x="294" y="710" type="curve" smooth="yes"/>
      <point x="184" y="710"/>
      <point x="95" y="633"/>
      <point x="95" y="537" type="curve" smooth="yes"/>
      <point x="95" y="482"/>
      <point x="124" y="432"/>
      <point x="170" y="401" type="curve"/>
      <point x="96" y="364"/>
      <point x="45" y="293"/>
      <point x="45" y="212" type="curve" smooth="yes"/>
      <point x="45" y="93"/>
      <point x="153" y="-3"/>
      <point x="286" y="-3" type="curve" smooth="yes"/>
      <point x="418" y="-3"/>
      <point x="526" y="93"/>
      <point x="526" y="212" type="curve" smooth="yes"/>
      <point x="526" y="290"/>
      <point x="480" y="358"/>
    </contour>
    <contour>
      <point x="294" y="656" type="curve" smooth="yes"/>
      <point x="364" y="656"/>
      <point x="420" y="597"/>
      <point x="420" y="537" type="curve" smooth="yes"/>
      <point x="420" y="476"/>
      <point x="364" y="417"/>
      <point x="294" y="417" type="curve" smooth="yes"/>
      <point x="224" y="417"/>
      <point x="168" y="476"/>
      <point x="168" y="537" type="curve" smooth="yes"/>
      <point x="168" y="597"/>
      <point x="224" y="656"/>
    </contour>
    <contour>
      <point x="286" y="61" type="curve" smooth="yes"/>
      <point x="196" y="61"/>
      <point x="124" y="129"/>
      <point x="124" y="212" type="curve" smooth="yes"/>
      <point x="124" y="295"/>
      <point x="198" y="373"/>
      <point x="288" y="373" type="curve" smooth="yes"/>
      <point x="377" y="373"/>
      <point x="447" y="295"/>
      <point x="447" y="212" type="curve" smooth="yes"/>
      <point x="447" y="129"/>
      <point x="375" y="61"/>
    </contour>
  </outline>
</glyph>
<glyph name="A" format="1">
  <advance width="813"/>
  <unicode hex="0041"/>
  <outline>
    <contour>
      <point x="793" y="0" type="line"/>
      <point x="727" y="67" type="line"/>
      <point x="407" y="747" type="line"/>
      <point x="86" y="67" type="line"/>
      <point x="20" y="0" type="line"/>
      <point x="218" y="0" type="line"/>
      <point x="174" y="44" type="line"/>
      <point x="299" y="356" type="line"/>
      <point x="514" y="356" type="line"/>
      <point x="639" y="44" type="line"/>
      <point x="595" y="0" type="line"/>
    </contour>
    <contour>
      <point x="317" y="399" type="line"/>
      <point x="407" y="624" type="line"/>
      <point x="497" y="399" type="line"/>
    </contour>
  </outline>
</glyph>
<glyph name="C" format="1">
  <advance width="773"/>
  <unicode hex="0043"/>
  <outline>
    <contour>
      <point x="719" y="218" type="line"/>
      <point x="663" y="133"/>
      <point x="550" y="55"/>
      <point x="431" y="55" type="curve" smooth="yes"/>
      <point x="253" y="55"/>
      <point x="108" y="203"/>
      <point x="108" y="360" type="curve" smooth="yes"/>
      <point x="108" y="517"/>
      <point x="253" y="665"/>
      <point x="431" y="665" type="curve" smooth="yes"/>
      <point x="565" y="665"/>
      <point x="679" y="572"/>
      <point x="728" y="469" type="curve"/>
      <point x="718" y="654" type="line"/>
      <point x="654" y="654" type="line"/>
      <point x="590" y="694"/>
      <point x="513" y="718"/>
      <point x="431" y="718" type="curve" smooth="yes"/>
      <point x="213" y="718"/>
      <point x="36" y="555"/>
      <point x="36" y="355" type="curve" smooth="yes"/>
      <point x="36" y="154"/>
      <point x="213" y="-8"/>
      <point x="431" y="-8" type="curve" smooth="yes"/>
      <point x="517" y="-8"/>
      <point x="597" y="17"/>
      <point x="663" y="61" type="curve"/>
      <point x="718" y="61" type="line"/>
    </contour>
  </outline>
</glyph>
<glyph name="D" format="1">
  <advance width="833"/>
  <unicode hex="0044"/>
  <outline>
    <contour>
      <point x="188" y="671" type="line"/>
      <point x="229" y="712" type="line"/>
      <point x="51" y="712" type="line"/>
      <point x="112" y="651" type="line"/>
      <point x="112" y="61" type="line"/>
      <point x="51" y="0" type="line"/>
      <point x="229" y="0" type="line"/>
      <point x="188" y="41" type="line"/>
    </contour>
    <contour>
      <point x="721" y="356" type="curve" smooth="yes"/>
      <point x="721" y="169"/>
      <point x="576" y="31"/>
      <point x="400" y="31" type="curve" smooth="yes"/>
      <point x="318" y="31"/>
      <point x="233" y="59"/>
      <point x="188" y="94" type="curve"/>
      <point x="242" y="34"/>
      <point x="337" y="-15"/>
      <point x="418" y="-15" type="curve" smooth="yes"/>
      <point x="640.0" y="-15.0"/>
      <point x="803" y="142"/>
      <point x="803" y="356" type="curve" smooth="yes"/>
      <point x="803" y="570"/>
      <point x="640.0" y="727.0"/>
      <point x="418" y="727" type="curve" smooth="yes"/>
      <point x="337" y="727"/>
      <point x="242" y="678"/>
      <point x="188" y="618" type="curve"/>
      <point x="233" y="653"/>
      <point x="318" y="681"/>
      <point x="400" y="681" type="curve" smooth="yes"/>
      <point x="576" y="681"/>
      <point x="721" y="543"/>
    </contour>
  </outline>
</glyph>
<glyph name="E" format="1">
  <advance width="630"/>
  <unicode hex="0045"/>
  <outline>
    <contour>
      <point x="188" y="66" type="line"/>
      <point x="188" y="356" type="line"/>
      <point x="291" y="356" type="line"/>
      <point x="320" y="327" type="line"/>
      <point x="320" y="429" type="line"/>
      <point x="291" y="400" type="line"/>
      <point x="188" y="400" type="line"/>
      <point x="188" y="646" type="line"/>
      <point x="433" y="646" type="line"/>
      <point x="490" y="589" type="line"/>
      <point x="480" y="712" type="line"/>
      <point x="51" y="712" type="line"/>
      <point x="112" y="651" type="line"/>
      <point x="112" y="61" type="line"/>
      <point x="51" y="0" type="line"/>
      <point x="577" y="0" type="line"/>
      <point x="587" y="127" type="line"/>
      <point x="526" y="66" type="line"/>
    </contour>
  </outline>
</glyph>
<glyph name="F" format="1">
  <advance width="570"/>
  <unicode hex="0046"/>
  <outline>
    <contour>
      <point x="188" y="712" type="line"/>
      <point x="112" y="712" type="line"/>
      <point x="51" y="712" type="line"/>
      <point x="112" y="651" type="line"/>
      <point x="112" y="61" type="line"/>
      <point x="51" y="0" type="line"/>
      <point x="112" y="0" type="line"/>
      <point x="188" y="0" type="line"/>
      <point x="249" y="0" type="line"/>
      <point x="188" y="61" type="line"/>
      <point x="188" y="356" type="line"/>
      <point x="291" y="356" type="line"/>
      <point x="320" y="327" type="line"/>
      <point x="320" y="356" type="line"/>
      <point x="320" y="368" type="line"/>
      <point x="320" y="388" type="line"/>
      <point x="320" y="400" type="line"/>
      <point x="320" y="429" type="line"/>
      <point x="291" y="400" type="line"/>
      <point x="188" y="400" type="line"/>
      <point x="188" y="646" type="line"/>
      <point x="433" y="646" type="line"/>
      <point x="490" y="589" type="line"/>
      <point x="480" y="712" type="line"/>
      <point x="249" y="712" type="line"/>
    </contour>
  </outline>
</glyph>
<glyph name="G" format="1">
  <advance width="833"/>
  <unicode hex="0047"/>
  <outline>
    <contour>
      <point x="636" y="282" type="line"/>
      <point x="698" y="221" type="line"/>
      <point x="698" y="184" type="line"/>
      <point x="639" y="118"/>
      <point x="548" y="55"/>
      <point x="445" y="55" type="curve" smooth="yes"/>
      <point x="267" y="55"/>
      <point x="123" y="203"/>
      <point x="123" y="360" type="curve" smooth="yes"/>
      <point x="123" y="517"/>
      <point x="267" y="665"/>
      <point x="445" y="665" type="curve" smooth="yes"/>
      <point x="579" y="665"/>
      <point x="694" y="572"/>
      <point x="743" y="469" type="curve"/>
      <point x="732" y="654" type="line"/>
      <point x="668" y="654" type="line"/>
      <point x="605" y="694"/>
      <point x="528" y="718"/>
      <point x="445" y="718" type="curve" smooth="yes"/>
      <point x="227" y="718"/>
      <point x="51" y="555"/>
      <point x="51" y="355" type="curve" smooth="yes"/>
      <point x="51" y="154"/>
      <point x="227" y="-8"/>
      <point x="445" y="-8" type="curve" smooth="yes"/>
      <point x="542" y="-8"/>
      <point x="630" y="24"/>
      <point x="699" y="77" type="curve"/>
      <point x="765" y="77" type="line"/>
      <point x="765" y="226" type="line"/>
      <point x="773" y="282" type="line"/>
    </contour>
  </outline>
</glyph>
<glyph name="H" format="1">
  <advance width="816"/>
  <unicode hex="0048"/>
  <outline>
    <contour>
      <point x="756" y="712" type="line"/>
      <point x="558" y="712" type="line"/>
      <point x="619" y="651" type="line"/>
      <point x="619" y="400" type="line"/>
      <point x="188" y="400" type="line"/>
      <point x="188" y="651" type="line"/>
      <point x="249" y="712" type="line"/>
      <point x="51" y="712" type="line"/>
      <point x="112" y="651" type="line"/>
      <point x="112" y="61" type="line"/>
      <point x="51" y="0" type="line"/>
      <point x="249" y="0" type="line"/>
      <point x="188" y="61" type="line"/>
      <point x="188" y="356" type="line"/>
      <point x="619" y="356" type="line"/>
      <point x="619" y="61" type="line"/>
      <point x="558" y="0" type="line"/>
      <point x="756" y="0" type="line"/>
      <point x="695" y="61" type="line"/>
      <point x="695" y="651" type="line"/>
    </contour>
  </outline>
</glyph>
<glyph name="L" format="1">
  <advance width="653"/>
  <unicode hex="004C"/>
  <outline>
    <contour>
      <point x="188" y="66" type="line"/>
      <point x="188" y="651" type="line"/>
      <point x="249" y="712" type="line"/>
      <point x="51" y="712" type="line"/>
      <point x="112" y="651" type="line"/>
      <point x="112" y="61" type="line"/>
      <point x="51" y="0" type="line"/>
      <point x="577" y="0" type="line"/>
      <point x="587" y="127" type="line"/>
      <point x="526" y="66" type="line"/>
    </contour>
  </outline>
</glyph>
<glyph name="O" format="1">
  <advance width="858"/>
  <unicode hex="004F"/>
  <outline>
    <contour>
      <point x="425" y="727" type="curve" smooth="yes"/>
      <point x="207.0" y="727.0"/>
      <point x="31.0" y="559.9586776859504"/>
      <point x="31" y="355" type="curve" smooth="yes"/>
      <point x="31.0" y="150.12396694214874"/>
      <point x="207.0" y="-15.0"/>
      <point x="425" y="-15" type="curve" smooth="yes"/>
      <point x="643.0" y="-15.0"/>
      <point x="819.0" y="150.12396694214874"/>
      <point x="819" y="355" type="curve" smooth="yes"/>
      <point x="819.0" y="559.9586776859504"/>
      <point x="643.0" y="727.0"/>
    </contour>
    <contour>
      <point x="425" y="55" type="curve" smooth="yes"/>
      <point x="251.34615384615384" y="55.0"/>
      <point x="110.0" y="203.0"/>
      <point x="110" y="360" type="curve" smooth="yes"/>
      <point x="110.0" y="522.0"/>
      <point x="250.86956521739128" y="674.0"/>
      <point x="425" y="674" type="curve" smooth="yes"/>
      <point x="599.1304347826087" y="674.0"/>
      <point x="740.0" y="522.0"/>
      <point x="740" y="360" type="curve" smooth="yes"/>
      <point x="740.0" y="203.0"/>
      <point x="598.6538461538462" y="55.0"/>
    </contour>
  </outline>
</glyph>
<glyph name="P" format="1">
  <advance width="608"/>
  <unicode hex="0050"/>
  <outline>
    <contour>
      <point x="187" y="432" type="line"/>
      <point x="183" y="442" type="line"/>
      <point x="204" y="359"/>
      <point x="291" y="303"/>
      <point x="374" y="303" type="curve" smooth="yes"/>
      <point x="492" y="303"/>
      <point x="585" y="398"/>
      <point x="585" y="515" type="curve"/>
      <point x="585" y="632"/>
      <point x="492" y="727"/>
      <point x="374" y="727" type="curve" smooth="yes"/>
      <point x="291" y="727"/>
      <point x="204" y="671"/>
      <point x="183" y="588" type="curve"/>
      <point x="187" y="598" type="line"/>
      <point x="187" y="671" type="line"/>
      <point x="228" y="712" type="line"/>
      <point x="50" y="712" type="line"/>
      <point x="112" y="651" type="line"/>
      <point x="112" y="61" type="line"/>
      <point x="50" y="0" type="line"/>
      <point x="299" y="0" type="line"/>
      <point x="187" y="61" type="line"/>
    </contour>
    <contour>
      <point x="177" y="515" type="curve"/>
      <point x="177" y="606"/>
      <point x="255" y="679"/>
      <point x="353" y="679" type="curve" smooth="yes"/>
      <point x="442" y="679"/>
      <point x="505" y="606"/>
      <point x="505" y="515" type="curve"/>
      <point x="505" y="424"/>
      <point x="442" y="351"/>
      <point x="353" y="351" type="curve" smooth="yes"/>
      <point x="255" y="351"/>
      <point x="177" y="424"/>
    </contour>
  </outline>
</glyph>
<glyph name="Q" format="1">
  <advance width="892"/>
  <unicode hex="0051"/>
  <outline>
    <contour>
      <point x="839" y="354" type="curve" smooth="yes"/>
      <point x="839" y="555"/>
      <point x="663" y="717"/>
      <point x="445" y="717" type="curve" smooth="yes"/>
      <point x="227" y="717"/>
      <point x="51" y="555"/>
      <point x="51" y="354" type="curve" smooth="yes"/>
      <point x="51" y="154"/>
      <point x="227" y="-9"/>
      <point x="445" y="-9" type="curve" smooth="yes"/>
      <point x="472" y="-9"/>
      <point x="499" y="-7"/>
      <point x="525" y="-2" type="curve"/>
      <point x="583" y="-80" type="line"/>
      <point x="785" y="-80" type="line"/>
      <point x="625" y="31" type="line"/>
      <point x="752" y="91"/>
      <point x="839" y="213"/>
    </contour>
    <contour>
      <point x="445" y="55" type="curve" smooth="yes"/>
      <point x="267" y="55"/>
      <point x="123" y="202"/>
      <point x="123" y="359" type="curve" smooth="yes"/>
      <point x="123" y="516"/>
      <point x="267" y="664"/>
      <point x="445" y="664" type="curve" smooth="yes"/>
      <point x="623" y="664"/>
      <point x="767" y="516"/>
      <point x="767" y="359" type="curve" smooth="yes"/>
      <point x="767" y="239"/>
      <point x="683" y="124"/>
      <point x="563" y="77" type="curve"/>
      <point x="531" y="103"/>
      <point x="465" y="150"/>
      <point x="413" y="150" type="curve"/>
      <point x="482" y="57" type="line"/>
      <point x="470" y="55"/>
      <point x="457" y="55"/>
    </contour>
  </outline>
</glyph>
<glyph name="R" format="1">
  <advance width="632"/>
  <unicode hex="0052"/>
  <outline>
    <contour>
      <point x="163" y="403" type="line"/>
      <point x="163" y="403"/>
      <point x="163" y="403"/>
      <point x="163" y="403" type="curve"/>
      <point x="163" y="403"/>
      <point x="163" y="403"/>
      <point x="163" y="403" type="curve"/>
      <point x="537" y="0" type="line"/>
      <point x="661" y="0" type="line"/>
      <point x="302" y="338" type="line"/>
      <point x="302" y="338"/>
      <point x="302" y="338"/>
      <point x="301" y="339" type="curve"/>
      <point x="308" y="338"/>
      <point x="314" y="338"/>
      <point x="321" y="338" type="curve" smooth="yes"/>
      <point x="437" y="338"/>
      <point x="531" y="424"/>
      <point x="531" y="530" type="curve" smooth="yes"/>
      <point x="531" y="636"/>
      <point x="437" y="722"/>
      <point x="321" y="722" type="curve" smooth="yes"/>
      <point x="258" y="722"/>
      <point x="202" y="697"/>
      <point x="163" y="657" type="curve"/>
      <point x="163" y="671" type="line"/>
      <point x="204" y="712" type="line"/>
      <point x="163" y="712" type="line"/>
      <point x="143" y="712" type="line"/>
      <point x="88" y="712" type="line"/>
      <point x="26" y="712" type="line"/>
      <point x="88" y="651" type="line"/>
      <point x="88" y="61" type="line"/>
      <point x="26" y="0" type="line"/>
      <point x="88" y="0" type="line"/>
      <point x="163" y="0" type="line"/>
      <point x="225" y="0" type="line"/>
      <point x="163" y="61" type="line"/>
      <point x="163" y="403" type="line"/>
    </contour>
    <contour>
      <point x="153" y="530" type="curve" smooth="yes"/>
      <point x="153" y="604"/>
      <point x="222" y="664"/>
      <point x="307" y="664" type="curve" smooth="yes"/>
      <point x="307" y="664"/>
      <point x="308" y="664"/>
      <point x="308" y="664" type="curve" smooth="yes"/>
      <point x="308" y="664"/>
      <point x="309" y="664"/>
      <point x="309" y="664" type="curve" smooth="yes"/>
      <point x="393" y="664"/>
      <point x="461" y="604"/>
      <point x="461" y="530" type="curve" smooth="yes"/>
      <point x="461" y="456"/>
      <point x="393" y="396"/>
      <point x="309" y="396" type="curve" smooth="yes"/>
      <point x="309" y="396"/>
      <point x="308" y="396"/>
      <point x="308" y="396" type="curve" smooth="yes"/>
      <point x="308" y="396"/>
      <point x="307" y="396"/>
      <point x="307" y="396" type="curve" smooth="yes"/>
      <point x="222" y="396"/>
      <point x="153" y="456"/>
    </contour>
  </outline>
</glyph>
<glyph name="S" format="1">
  <advance width="549"/>
  <unicode hex="0053"/>
  <outline>
    <contour>
      <point x="515.0" y="332.42857142857144"/>
      <point x="417.1316530192677" y="400.97410104538994"/>
      <point x="295" y="425" type="curve" smooth="yes"/>
      <point x="192.6609811525268" y="445.06647428381825"/>
      <point x="140.0" y="478.2241379310345"/>
      <point x="140" y="551" type="curve" smooth="yes"/>
      <point x="140.0" y="614.7727272727273"/>
      <point x="198.0" y="666.0"/>
      <point x="269" y="666" type="curve" smooth="yes"/>
      <point x="318" y="666"/>
      <point x="367" y="641"/>
      <point x="387" y="597" type="curve"/>
      <point x="421" y="707" type="line"/>
      <point x="399" y="694" type="line"/>
      <point x="366" y="715"/>
      <point x="326" y="727"/>
      <point x="283" y="727" type="curve" smooth="yes"/>
      <point x="173.0" y="727.0"/>
      <point x="84.0" y="646.7714285714286"/>
      <point x="84" y="547" type="curve" smooth="yes"/>
      <point x="84.0" y="433.954802259887"/>
      <point x="152.7513135430008" y="383.0480654496721"/>
      <point x="272" y="360" type="curve" smooth="yes"/>
      <point x="370.1487846855679" y="340.97115398953275"/>
      <point x="439.0" y="293.36986301369865"/>
      <point x="439" y="208" type="curve" smooth="yes"/>
      <point x="439" y="120"/>
      <point x="359" y="50"/>
      <point x="261" y="50" type="curve" smooth="yes"/>
      <point x="165" y="50"/>
      <point x="84" y="118"/>
      <point x="85" y="212" type="curve"/>
      <point x="-3" y="18" type="line"/>
      <point x="80" y="75" type="line"/>
      <point x="124" y="20"/>
      <point x="195" y="-15"/>
      <point x="275" y="-15" type="curve" smooth="yes"/>
      <point x="408" y="-15"/>
      <point x="515" y="85"/>
      <point x="515" y="209" type="curve" smooth="yes"/>
    </contour>
  </outline>
</glyph>
<glyph name="T" format="1">
  <advance width="644"/>
  <unicode hex="0054"/>
  <outline>
    <contour>
      <point x="41" y="712" type="line"/>
      <point x="31" y="589" type="line"/>
      <point x="88" y="646" type="line"/>
      <point x="275" y="646" type="line"/>
      <point x="275" y="61" type="line"/>
      <point x="214" y="0" type="line"/>
      <point x="412" y="0" type="line"/>
      <point x="351" y="61" type="line"/>
      <point x="351" y="646" type="line"/>
      <point x="538" y="646" type="line"/>
      <point x="595" y="589" type="line"/>
      <point x="585" y="712" type="line"/>
    </contour>
  </outline>
</glyph>
<glyph name="V" format="1">
  <advance width="762"/>
  <unicode hex="0056"/>
  <outline>
    <contour>
      <point x="534" y="712" type="line"/>
      <point x="577" y="668" type="line"/>
      <point x="381" y="133" type="line"/>
      <point x="185" y="668" type="line"/>
      <point x="228" y="712" type="line"/>
      <point x="20" y="712" type="line"/>
      <point x="124" y="608" type="line"/>
      <point x="381" y="-17" type="line"/>
      <point x="638" y="608" type="line"/>
      <point x="742" y="712" type="line"/>
    </contour>
  </outline>
</glyph>
<glyph name="W" format="1">
  <advance width="1247"/>
  <unicode hex="0057"/>
  <outline>
    <contour>
      <point x="1022" y="712" type="line"/>
      <point x="1066" y="668" type="line"/>
      <point x="860" y="163" type="line"/>
      <point x="636" y="729" type="line"/>
      <point x="412" y="163" type="line"/>
      <point x="206" y="668" type="line"/>
      <point x="249" y="712" type="line"/>
      <point x="51" y="712" type="line"/>
      <point x="155" y="608" type="line"/>
      <point x="412" y="-17" type="line"/>
      <point x="636" y="527" type="line"/>
      <point x="860" y="-17" type="line"/>
      <point x="1116" y="608" type="line"/>
      <point x="1221" y="712" type="line"/>
    </contour>
  </outline>
</glyph>
<glyph name="X" format="1">
  <advance width="649"/>
  <unicode hex="0058"/>
  <outline>
    <contour>
      <point x="364" y="387" type="line"/>
      <point x="538" y="666" type="line"/>
      <point x="584" y="712" type="line"/>
      <point x="567" y="712" type="line"/>
      <point x="522" y="712" type="line"/>
      <point x="492" y="712" type="line"/>
      <point x="491" y="712" type="line"/>
      <point x="430" y="712" type="line"/>
      <point x="468" y="675" type="line"/>
      <point x="326" y="448" type="line"/>
      <point x="185" y="674" type="line"/>
      <point x="222" y="712" type="line"/>
      <point x="161" y="712" type="line"/>
      <point x="161" y="712" type="line"/>
      <point x="130" y="712" type="line"/>
      <point x="86" y="712" type="line"/>
      <point x="69" y="712" type="line"/>
      <point x="114" y="666" type="line"/>
      <point x="288" y="387" type="line"/>
      <point x="80" y="54" type="line"/>
      <point x="26" y="0" type="line"/>
      <point x="47" y="0" type="line"/>
      <point x="88" y="0" type="line"/>
      <point x="120" y="0" type="line"/>
      <point x="120" y="0" type="line"/>
      <point x="181" y="0" type="line"/>
      <point x="145" y="36" type="line"/>
      <point x="326" y="327" type="line"/>
      <point x="507" y="38" type="line"/>
      <point x="469" y="0" type="line"/>
      <point x="530" y="0" type="line"/>
      <point x="530" y="0" type="line"/>
      <point x="530" y="0" type="line"/>
      <point x="565" y="0" type="line"/>
      <point x="606" y="0" type="line"/>
      <point x="626" y="0" type="line"/>
      <point x="572" y="54" type="line"/>
    </contour>
  </outline>
</glyph>
<glyph name="Y" format="1">
  <advance width="708"/>
  <unicode hex="0059"/>
  <outline>
    <contour>
      <point x="587" y="712" type="line"/>
      <point x="556" y="712" type="line"/>
      <point x="556" y="712" type="line"/>
      <point x="495" y="712" type="line"/>
      <point x="532" y="675" type="line"/>
      <point x="350" y="444" type="line"/>
      <point x="167" y="674" type="line"/>
      <point x="204" y="712" type="line"/>
      <point x="143" y="712" type="line"/>
      <point x="143" y="712" type="line"/>
      <point x="112" y="712" type="line"/>
      <point x="68" y="712" type="line"/>
      <point x="51" y="712" type="line"/>
      <point x="96" y="666" type="line"/>
      <point x="312" y="383" type="line"/>
      <point x="312" y="383" type="line"/>
      <point x="312" y="266" type="line"/>
      <point x="312" y="61" type="line"/>
      <point x="251" y="0" type="line"/>
      <point x="312" y="0" type="line"/>
      <point x="387" y="0" type="line"/>
      <point x="449" y="0" type="line"/>
      <point x="387" y="61" type="line"/>
      <point x="387" y="266" type="line"/>
      <point x="387" y="383" type="line"/>
      <point x="387" y="383" type="line"/>
      <point x="603" y="666" type="line"/>
      <point x="648" y="712" type="line"/>
      <point x="631" y="712" type="line"/>
    </contour>
  </outline>
</glyph>
<glyph name="Z" format="1">
  <advance width="601"/>
  <unicode hex="005A"/>
  <outline>
    <contour>
      <point x="495" y="712" type="line"/>
      <point x="495" y="711" type="line"/>
      <point x="495" y="712" type="line"/>
      <point x="353" y="712" type="line"/>
      <point x="292" y="712" type="line"/>
      <point x="61" y="712" type="line"/>
      <point x="51" y="589" type="line"/>
      <point x="108" y="646" type="line"/>
      <point x="454" y="646" type="line"/>
      <point x="51" y="0" type="line"/>
      <point x="126" y="0" type="line"/>
      <point x="515" y="0" type="line"/>
      <point x="526" y="127" type="line"/>
      <point x="464" y="66" type="line"/>
      <point x="168" y="66" type="line"/>
      <point x="571" y="712" type="line"/>
    </contour>
  </outline>
</glyph>
<glyph name="a" format="1">
  <advance width="491"/>
  <unicode hex="0061"/>
  <outline>
    <contour>
      <point x="45" y="126" type="curve" smooth="yes"/>
      <point x="45" y="43"/>
      <point x="106" y="-14"/>
      <point x="181" y="-14" type="curve" smooth="yes"/>
      <point x="239" y="-14"/>
      <point x="285" y="12"/>
      <point x="321" y="64" type="curve"/>
      <point x="293" y="41"/>
      <point x="263" y="18"/>
      <point x="226" y="18" type="curve" smooth="yes"/>
      <point x="168" y="18"/>
      <point x="124" y="64"/>
      <point x="124" y="121" type="curve" smooth="yes"/>
      <point x="124" y="177"/>
      <point x="168" y="223"/>
      <point x="226" y="223" type="curve" smooth="yes"/>
      <point x="263" y="223"/>
      <point x="293" y="201"/>
      <point x="321" y="177" type="curve"/>
      <point x="285" y="230"/>
      <point x="239" y="255"/>
      <point x="181" y="255" type="curve" smooth="yes"/>
      <point x="106" y="255"/>
      <point x="45" y="197"/>
    </contour>
    <contour>
      <point x="341" y="267" type="curve" smooth="yes"/>
      <point x="341" y="37" type="line"/>
      <point x="303" y="0" type="line"/>
      <point x="464" y="0" type="line"/>
      <point x="409" y="55" type="line"/>
      <point x="409" y="273" type="line" smooth="yes"/>
      <point x="409" y="399"/>
      <point x="347" y="455"/>
      <point x="236" y="455" type="curve" smooth="yes"/>
      <point x="186" y="455"/>
      <point x="128" y="434"/>
      <point x="97" y="401" type="curve"/>
      <point x="140" y="417" type="line"/>
      <point x="68" y="417" type="line"/>
      <point x="68" y="306" type="line"/>
      <point x="115" y="367"/>
      <point x="165" y="401"/>
      <point x="227" y="401" type="curve" smooth="yes"/>
      <point x="303" y="401"/>
      <point x="341" y="362"/>
    </contour>
  </outline>
</glyph>
<glyph name="b" format="1">
  <advance width="659"/>
  <unicode hex="0062"/>
  <outline>
    <contour>
      <point x="173" y="693" type="line"/>
      <point x="234" y="750" type="line"/>
      <point x="36" y="750" type="line"/>
      <point x="98" y="689" type="line"/>
      <point x="98" y="61" type="line"/>
      <point x="36" y="0" type="line"/>
      <point x="214" y="0" type="line"/>
      <point x="173" y="41" type="line"/>
    </contour>
    <contour>
      <point x="623" y="256" type="curve" smooth="yes"/>
      <point x="623.0" y="400.34387351778656"/>
      <point x="515.0" y="515.0"/>
      <point x="381" y="515" type="curve" smooth="yes"/>
      <point x="300" y="515"/>
      <point x="229" y="481"/>
      <point x="185" y="429" type="curve"/>
      <point x="223" y="460"/>
      <point x="274" y="480"/>
      <point x="331" y="480" type="curve" smooth="yes"/>
      <point x="447.0" y="480.0"/>
      <point x="535.0" y="378.3482142857143"/>
      <point x="535" y="250" type="curve" smooth="yes"/>
      <point x="535.0" y="122.33050847457628"/>
      <point x="447.0" y="20.0"/>
      <point x="331" y="20" type="curve" smooth="yes"/>
      <point x="274" y="20"/>
      <point x="223" y="40"/>
      <point x="185" y="71" type="curve"/>
      <point x="229" y="19"/>
      <point x="300" y="-15"/>
      <point x="381" y="-15" type="curve" smooth="yes"/>
      <point x="515.0" y="-15.0"/>
      <point x="623.0" y="95.5523465703971"/>
    </contour>
  </outline>
</glyph>
<glyph name="c" format="1">
  <advance width="562"/>
  <unicode hex="0063"/>
  <outline>
    <contour>
      <point x="110" y="254" type="curve"/>
      <point x="110" y="366"/>
      <point x="206" y="445"/>
      <point x="323" y="445" type="curve" smooth="yes"/>
      <point x="409" y="445"/>
      <point x="490" y="396"/>
      <point x="532" y="329" type="curve"/>
      <point x="532" y="461" type="line"/>
      <point x="491" y="461" type="line"/>
      <point x="443" y="498"/>
      <point x="385" y="510"/>
      <point x="323" y="510" type="curve" smooth="yes"/>
      <point x="165" y="510"/>
      <point x="36" y="411"/>
      <point x="36" y="251" type="curve"/>
      <point x="36" y="97"/>
      <point x="165" y="-8"/>
      <point x="323" y="-8" type="curve" smooth="yes"/>
      <point x="385" y="-8"/>
      <point x="443" y="10"/>
      <point x="491" y="41" type="curve"/>
      <point x="532" y="41" type="line"/>
      <point x="532" y="173" type="line"/>
      <point x="490" y="112"/>
      <point x="409" y="57"/>
      <point x="323" y="57" type="curve" smooth="yes"/>
      <point x="206" y="57"/>
      <point x="110" y="142"/>
    </contour>
  </outline>
</glyph>
<glyph name="e" format="1">
  <advance width="595"/>
  <unicode hex="0065"/>
  <outline>
    <contour>
      <point x="532" y="173" type="line"/>
      <point x="488.73529944630087" y="109.76697611382437"/>
      <point x="409.0" y="50.0"/>
      <point x="323" y="50" type="curve" smooth="yes"/>
      <point x="206.0" y="50.0"/>
      <point x="110.0" y="138.0203045685279"/>
      <point x="110" y="254" type="curve" smooth="yes"/>
      <point x="110.0" y="365.8238341968912"/>
      <point x="201.0" y="452.0"/>
      <point x="313" y="452" type="curve" smooth="yes"/>
      <point x="418.0" y="452.0"/>
      <point x="479" y="412"/>
      <point x="503" y="298" type="curve"/>
      <point x="565" y="295" type="line"/>
      <point x="546" y="458"/>
      <point x="427.0" y="515.0"/>
      <point x="313" y="515" type="curve" smooth="yes"/>
      <point x="161.0" y="515.0"/>
      <point x="36.0" y="405.934362934363"/>
      <point x="36" y="251" type="curve" smooth="yes"/>
      <point x="36.0" y="92.83783783783784"/>
      <point x="165.0" y="-15.0"/>
      <point x="323" y="-15" type="curve" smooth="yes"/>
      <point x="385.0" y="-15.0"/>
      <point x="440.88417952308305" y="8.633532608657795"/>
      <point x="491" y="41" type="curve"/>
      <point x="532" y="41" type="line"/>
    </contour>
    <contour>
      <point x="144" y="281" type="line"/>
      <point x="565" y="295" type="line"/>
      <point x="541" y="366" type="line"/>
    </contour>
  </outline>
</glyph>
<glyph name="g" format="1">
  <advance width="626.0"/>
  <unicode hex="0067"/>
  <outline>
    <contour>
      <point x="288" y="518" type="curve" smooth="yes"/>
      <point x="181.49019607843138" y="518.0"/>
      <point x="94.0" y="440.0"/>
      <point x="94" y="345" type="curve" smooth="yes"/>
      <point x="94.0" y="249.0"/>
      <point x="181.49019607843138" y="172.0"/>
      <point x="288" y="172" type="curve" smooth="yes"/>
      <point x="394.5098039215686" y="172.0"/>
      <point x="482.0" y="249.0"/>
      <point x="482" y="345" type="curve" smooth="yes"/>
      <point x="482.0" y="440.0"/>
      <point x="394.5098039215686" y="518.0"/>
    </contour>
    <contour>
      <point x="288" y="235" type="curve" smooth="yes"/>
      <point x="220.53030303030303" y="235.0"/>
      <point x="166.0" y="290.0"/>
      <point x="166" y="350" type="curve" smooth="yes"/>
      <point x="166.0" y="410.0"/>
      <point x="220.53030303030303" y="465.0"/>
      <point x="288" y="465" type="curve" smooth="yes"/>
      <point x="355.469696969697" y="465.0"/>
      <point x="410.0" y="410.0"/>
      <point x="410" y="350" type="curve" smooth="yes"/>
      <point x="410.0" y="290.0"/>
      <point x="355.469696969697" y="235.0"/>
    </contour>
    <contour>
      <point x="478" y="499" type="line"/>
      <point x="492" y="476"/>
      <point x="502" y="447"/>
      <point x="502" y="426" type="curve" smooth="yes"/>
      <point x="502" y="409"/>
      <point x="491" y="382"/>
      <point x="478" y="355" type="curve" smooth="yes"/>
      <point x="532" y="386"/>
      <point x="581" y="442"/>
      <point x="596" y="499" type="curve"/>
    </contour>
    <contour>
      <point x="118" y="125" type="curve" smooth="yes"/>
      <point x="118" y="151"/>
      <point x="136" y="173"/>
      <point x="172" y="191" type="curve"/>
      <point x="119" y="178"/>
      <point x="72" y="144"/>
      <point x="72" y="97" type="curve" smooth="yes"/>
      <point x="72" y="45"/>
      <point x="111" y="-1"/>
      <point x="234" y="-1" type="curve" smooth="yes"/>
      <point x="423" y="-1" type="line" smooth="yes"/>
      <point x="501" y="-1"/>
      <point x="527" y="-35"/>
      <point x="527" y="-76" type="curve" smooth="yes"/>
      <point x="527" y="-155"/>
      <point x="434" y="-194"/>
      <point x="319" y="-194" type="curve" smooth="yes"/>
      <point x="190" y="-194"/>
      <point x="82" y="-126"/>
      <point x="83" y="-32" type="curve"/>
      <point x="-5" y="-226" type="line"/>
      <point x="94" y="-158" type="line"/>
      <point x="66" y="-154" type="line"/>
      <point x="129" y="-233"/>
      <point x="228" y="-259"/>
      <point x="333" y="-259" type="curve" smooth="yes"/>
      <point x="477" y="-259"/>
      <point x="603" y="-182"/>
      <point x="603" y="-75" type="curve" smooth="yes"/>
      <point x="603" y="20"/>
      <point x="539" y="66"/>
      <point x="421" y="66" type="curve" smooth="yes"/>
      <point x="232" y="66" type="line" smooth="yes"/>
      <point x="133" y="66"/>
      <point x="118" y="97"/>
    </contour>
  </outline>
</glyph>
<glyph name="h" format="1">
  <advance width="594"/>
  <unicode hex="0068"/>
  <outline>
    <contour>
      <point x="173" y="688" type="line"/>
      <point x="236" y="749" type="line"/>
      <point x="36" y="749" type="line"/>
      <point x="98" y="688" type="line"/>
      <point x="98" y="61" type="line"/>
      <point x="36" y="0" type="line"/>
      <point x="234" y="0" type="line"/>
      <point x="173" y="61" type="line"/>
    </contour>
    <contour>
      <point x="428" y="287" type="curve" smooth="yes"/>
      <point x="428" y="61" type="line"/>
      <point x="366" y="0" type="line"/>
      <point x="564" y="0" type="line"/>
      <point x="503" y="61" type="line"/>
      <point x="503" y="293" type="line" smooth="yes"/>
      <point x="503" y="440"/>
      <point x="453" y="506"/>
      <point x="361" y="506" type="curve" smooth="yes"/>
      <point x="283" y="506"/>
      <point x="232" y="466"/>
      <point x="195" y="400" type="curve"/>
      <point x="238" y="446"/>
      <point x="272" y="471"/>
      <point x="321" y="471" type="curve" smooth="yes"/>
      <point x="392" y="471"/>
      <point x="428" y="417"/>
    </contour>
  </outline>
</glyph>
<glyph name="i" format="1">
  <advance width="270"/>
  <unicode hex="0069"/>
  <outline>
    <contour>
      <point x="173" y="438" type="line"/>
      <point x="234" y="499" type="line"/>
      <point x="36" y="499" type="line"/>
      <point x="97" y="438" type="line"/>
      <point x="97" y="61" type="line"/>
      <point x="36" y="0" type="line"/>
      <point x="234" y="0" type="line"/>
      <point x="173" y="61" type="line"/>
    </contour>
    <contour>
      <point x="211" y="697" type="line"/>
      <point x="135" y="773" type="line"/>
      <point x="59" y="697" type="line"/>
      <point x="135" y="621" type="line"/>
    </contour>
  </outline>
</glyph>
<glyph name="j" format="1">
  <advance width="270"/>
  <unicode hex="006A"/>
  <outline>
    <contour>
      <point x="173" y="438" type="line"/>
      <point x="234" y="499" type="line"/>
      <point x="36" y="499" type="line"/>
      <point x="97" y="438" type="line"/>
      <point x="97" y="-190" type="line"/>
      <point x="36" y="-251" type="line"/>
      <point x="234" y="-251" type="line"/>
      <point x="173" y="-190" type="line"/>
    </contour>
    <contour>
      <point x="211" y="697" type="line"/>
      <point x="135" y="773" type="line"/>
      <point x="59" y="697" type="line"/>
      <point x="135" y="621" type="line"/>
    </contour>
  </outline>
</glyph>
<glyph name="k" format="1">
  <advance width="565"/>
  <unicode hex="006B"/>
  <outline>
    <contour>
      <point x="193" y="278" type="line"/>
      <point x="456" y="-1" type="line"/>
      <point x="580" y="-1" type="line"/>
      <point x="273" y="284" type="line"/>
      <point x="346" y="383" type="line"/>
      <point x="476" y="499" type="line"/>
      <point x="339" y="499" type="line"/>
    </contour>
    <contour>
      <point x="188" y="651" type="line"/>
      <point x="249" y="712" type="line"/>
      <point x="51" y="712" type="line"/>
      <point x="112" y="651" type="line"/>
      <point x="112" y="60" type="line"/>
      <point x="51" y="-1" type="line"/>
      <point x="249" y="-1" type="line"/>
      <point x="188" y="60" type="line"/>
    </contour>
  </outline>
</glyph>
<glyph name="l" format="1">
  <advance width="258"/>
  <unicode hex="006C"/>
  <outline>
    <contour>
      <point x="167" y="688" type="line"/>
      <point x="228" y="749" type="line"/>
      <point x="30" y="749" type="line"/>
      <point x="91" y="688" type="line"/>
      <point x="91" y="61" type="line"/>
      <point x="30" y="0" type="line"/>
      <point x="228" y="0" type="line"/>
      <point x="167" y="61" type="line"/>
    </contour>
  </outline>
</glyph>
<glyph name="m" format="1">
  <advance width="822"/>
  <unicode hex="006D"/>
  <outline>
    <contour>
      <point x="173" y="453" type="line"/>
      <point x="214" y="500" type="line"/>
      <point x="36" y="500" type="line"/>
      <point x="98" y="439" type="line"/>
      <point x="98" y="61" type="line"/>
      <point x="36" y="0" type="line"/>
      <point x="234" y="0" type="line"/>
      <point x="173" y="61" type="line"/>
    </contour>
    <contour>
      <point x="378" y="297" type="curve" smooth="yes"/>
      <point x="378" y="61" type="line"/>
      <point x="316" y="0" type="line"/>
      <point x="514" y="0" type="line"/>
      <point x="453" y="61" type="line"/>
      <point x="453" y="303" type="line" smooth="yes"/>
      <point x="453" y="449"/>
      <point x="410" y="515"/>
      <point x="331" y="515" type="curve" smooth="yes"/>
      <point x="262" y="515"/>
      <point x="217" y="478"/>
      <point x="185" y="410" type="curve"/>
      <point x="221.02924925270327" y="455.7668841858663"/>
      <point x="250.0" y="477.0"/>
      <point x="291" y="477" type="curve" smooth="yes"/>
      <point x="349.0" y="477.0"/>
      <point x="378" y="423.88524590163934"/>
    </contour>
    <contour>
      <point x="650" y="61" type="line"/>
      <point x="588" y="0" type="line"/>
      <point x="786" y="0" type="line"/>
      <point x="725" y="61" type="line"/>
      <point x="725" y="303" type="line" smooth="yes"/>
      <point x="725" y="449"/>
      <point x="682" y="515"/>
      <point x="603" y="515" type="curve" smooth="yes"/>
      <point x="534" y="515"/>
      <point x="489" y="478"/>
      <point x="457" y="410" type="curve"/>
      <point x="493.02924925270327" y="455.7668841858663"/>
      <point x="522.0" y="477.0"/>
      <point x="563" y="477" type="curve" smooth="yes"/>
      <point x="621.0" y="477.0"/>
      <point x="650" y="423.88524590163934"/>
      <point x="650" y="297" type="curve" smooth="yes"/>
    </contour>
  </outline>
</glyph>
<glyph name="n" format="1">
  <advance width="526"/>
  <unicode hex="006E"/>
  <outline>
    <contour>
      <point x="156" y="408" type="line"/>
      <point x="202" y="450" type="line"/>
      <point x="32" y="450" type="line"/>
      <point x="88" y="395" type="line"/>
      <point x="88" y="55" type="line"/>
      <point x="32" y="0" type="line"/>
      <point x="211" y="0" type="line"/>
      <point x="156" y="55" type="line"/>
    </contour>
    <contour>
      <point x="376" y="267" type="curve" smooth="yes"/>
      <point x="376" y="55" type="line"/>
      <point x="320" y="0" type="line"/>
      <point x="499" y="0" type="line"/>
      <point x="444" y="55" type="line"/>
      <point x="444" y="273" type="line" smooth="yes"/>
      <point x="444" y="404.68586387434556"/>
      <point x="399.0" y="465.0"/>
      <point x="316" y="465" type="curve" smooth="yes"/>
      <point x="246.0" y="465.0"/>
      <point x="199.2605857491035" y="428.4804549749096"/>
      <point x="167" y="369" type="curve"/>
      <point x="205.32563948211794" y="410.35134786228514"/>
      <point x="236.0" y="433.0"/>
      <point x="280" y="433" type="curve" smooth="yes"/>
      <point x="344.0" y="433.0"/>
      <point x="376" y="383.7030303030303"/>
    </contour>
  </outline>
</glyph>
<glyph name="o" format="1">
  <advance width="574"/>
  <unicode hex="006F"/>
  <outline>
    <contour>
      <point x="287" y="464" type="curve" smooth="yes"/>
      <point x="142" y="464"/>
      <point x="25" y="356"/>
      <point x="25" y="225" type="curve" smooth="yes"/>
      <point x="25" y="94"/>
      <point x="142" y="-14"/>
      <point x="287" y="-14" type="curve" smooth="yes"/>
      <point x="431" y="-14"/>
      <point x="549" y="94"/>
      <point x="549" y="225" type="curve" smooth="yes"/>
      <point x="549" y="356"/>
      <point x="431" y="464"/>
    </contour>
    <contour>
      <point x="287" y="46" type="curve" smooth="yes"/>
      <point x="180" y="46"/>
      <point x="94" y="128"/>
      <point x="94" y="230" type="curve" smooth="yes"/>
      <point x="94" y="332"/>
      <point x="180" y="416"/>
      <point x="287" y="416" type="curve" smooth="yes"/>
      <point x="393" y="416"/>
      <point x="479" y="332"/>
      <point x="479" y="230" type="curve" smooth="yes"/>
      <point x="479" y="128"/>
      <point x="393" y="46"/>
    </contour>
  </outline>
</glyph>
<glyph name="r" format="1">
  <advance width="338"/>
  <unicode hex="0072"/>
  <outline>
    <contour>
      <point x="156" y="416" type="line"/>
      <point x="184" y="449" type="line"/>
      <point x="32" y="449" type="line"/>
      <point x="88" y="394" type="line"/>
      <point x="88" y="55" type="line"/>
      <point x="32" y="0" type="line"/>
      <point x="211" y="0" type="line"/>
      <point x="156" y="55" type="line"/>
    </contour>
    <contour>
      <point x="329" y="335" type="curve"/>
      <point x="329" y="449" type="line"/>
      <point x="284" y="449" type="line"/>
      <point x="310" y="432" type="line"/>
      <point x="296" y="446"/>
      <point x="281" y="455"/>
      <point x="261" y="455" type="curve" smooth="yes"/>
      <point x="225" y="455"/>
      <point x="188" y="427"/>
      <point x="167" y="369" type="curve"/>
      <point x="187" y="401"/>
      <point x="219" y="406"/>
      <point x="236" y="406" type="curve" smooth="yes"/>
      <point x="272" y="406"/>
      <point x="296" y="379"/>
    </contour>
  </outline>
</glyph>
<glyph name="s" format="1">
  <advance width="389"/>
  <unicode hex="0073"/>
  <outline>
    <contour>
      <point x="354" y="197"/>
      <point x="299" y="244"/>
      <point x="210" y="268" type="curve" smooth="yes"/>
      <point x="144" y="286"/>
      <point x="121" y="309"/>
      <point x="121" y="347" type="curve" smooth="yes"/>
      <point x="121" y="389"/>
      <point x="151" y="412"/>
      <point x="187" y="412" type="curve" smooth="yes"/>
      <point x="235" y="412"/>
      <point x="280" y="390"/>
      <point x="304" y="333" type="curve"/>
      <point x="315" y="447" type="line"/>
      <point x="252" y="447" type="line"/>
      <point x="282" y="423" type="line"/>
      <point x="269" y="450"/>
      <point x="230" y="465"/>
      <point x="191" y="465" type="curve" smooth="yes"/>
      <point x="126" y="465"/>
      <point x="66" y="416"/>
      <point x="66" y="339" type="curve" smooth="yes"/>
      <point x="66" y="266"/>
      <point x="112" y="228"/>
      <point x="190" y="207" type="curve" smooth="yes"/>
      <point x="250" y="191"/>
      <point x="286" y="165"/>
      <point x="286" y="119" type="curve" smooth="yes"/>
      <point x="286" y="71"/>
      <point x="246" y="41"/>
      <point x="191" y="41" type="curve" smooth="yes"/>
      <point x="123" y="41"/>
      <point x="75" y="95"/>
      <point x="56" y="162" type="curve"/>
      <point x="28" y="11" type="line"/>
      <point x="83" y="45" type="line"/>
      <point x="58" y="56" type="line"/>
      <point x="93" y="13"/>
      <point x="138" y="-15"/>
      <point x="211" y="-15" type="curve" smooth="yes"/>
      <point x="294" y="-15"/>
      <point x="354" y="36"/>
      <point x="354" y="120" type="curve" smooth="yes"/>
    </contour>
  </outline>
</glyph>
<glyph name="u" format="1">
  <advance width="562"/>
  <unicode hex="0075"/>
  <outline>
    <contour>
      <point x="532" y="500" type="line"/>
      <point x="333" y="500" type="line"/>
      <point x="395" y="439" type="line"/>
      <point x="395" y="154" type="line" smooth="yes"/>
      <point x="395" y="91"/>
      <point x="344.0" y="49.0"/>
      <point x="281" y="49" type="curve" smooth="yes"/>
      <point x="218.0" y="49.0"/>
      <point x="167" y="91"/>
      <point x="167" y="154" type="curve" smooth="yes"/>
      <point x="167" y="439" type="line"/>
      <point x="228" y="500" type="line"/>
      <point x="30" y="500" type="line"/>
      <point x="91" y="439" type="line"/>
      <point x="91" y="154" type="line" smooth="yes"/>
      <point x="91" y="56"/>
      <point x="176.0" y="-15.0"/>
      <point x="281" y="-15" type="curve" smooth="yes"/>
      <point x="386.0" y="-15.0"/>
      <point x="471" y="56"/>
      <point x="471" y="154" type="curve" smooth="yes"/>
      <point x="471" y="439" type="line"/>
    </contour>
  </outline>
</glyph>
<glyph name="v" format="1">
  <advance width="578"/>
  <unicode hex="0076"/>
  <outline>
    <contour>
      <point x="385" y="500" type="line"/>
      <point x="428" y="456" type="line"/>
      <point x="314" y="200" type="line"/>
      <point x="270" y="91" type="line"/>
      <point x="308" y="91" type="line"/>
      <point x="264" y="200" type="line"/>
      <point x="150" y="456" type="line"/>
      <point x="193" y="500" type="line"/>
      <point x="-5" y="500" type="line"/>
      <point x="99" y="396" type="line"/>
      <point x="289" y="-16" type="line"/>
      <point x="479" y="396" type="line"/>
      <point x="583" y="500" type="line"/>
    </contour>
  </outline>
</glyph>
<glyph name="dieresis" format="1">
  <advance width="361"/>
  <unicode hex="00A8"/>
  <outline>
    <contour>
      <point x="332" y="821" type="line"/>
      <point x="271" y="882" type="line"/>
      <point x="271" y="882" type="line"/>
      <point x="210" y="821" type="line"/>
      <point x="210" y="821" type="line"/>
      <point x="271" y="760" type="line"/>
      <point x="271" y="760" type="line"/>
    </contour>
    <contour>
      <point x="152" y="821" type="line"/>
      <point x="91" y="882" type="line"/>
      <point x="91" y="882" type="line"/>
      <point x="30" y="821" type="line"/>
      <point x="30" y="821" type="line"/>
      <point x="91" y="760" type="line"/>
      <point x="91" y="760" type="line"/>
    </contour>
  </outline>
</glyph>
<glyph name="guillemotleft" format="1">
  <advance width="478"/>
  <unicode hex="00AB"/>
  <outline>
    <contour>
      <point x="275" y="576" type="line"/>
      <point x="191" y="576" type="line"/>
      <point x="-1" y="369" type="line"/>
      <point x="211" y="162" type="line"/>
      <point x="304" y="162" type="line"/>
      <point x="70" y="369" type="line"/>
    </contour>
    <contour>
      <point x="435" y="576" type="line"/>
      <point x="351" y="576" type="line"/>
      <point x="159" y="369" type="line"/>
      <point x="371" y="162" type="line"/>
      <point x="464" y="162" type="line"/>
      <point x="230" y="369" type="line"/>
    </contour>
  </outline>
</glyph>
<glyph name="Aacute" format="1">
  <advance width="870"/>
  <unicode hex="00C1"/>
  <outline>
    <contour>
      <point x="825" y="0" type="line"/>
      <point x="759" y="67" type="line"/>
      <point x="759" y="67" type="line"/>
      <point x="439" y="747" type="line"/>
      <point x="118" y="67" type="line"/>
      <point x="118" y="67" type="line"/>
      <point x="52" y="0" type="line"/>
      <point x="250" y="0" type="line"/>
      <point x="206" y="44" type="line"/>
      <point x="331" y="356" type="line"/>
      <point x="546" y="356" type="line"/>
      <point x="671" y="44" type="line"/>
      <point x="627" y="0" type="line"/>
    </contour>
    <contour>
      <point x="349" y="399" type="line"/>
      <point x="439" y="624" type="line"/>
      <point x="529" y="399" type="line"/>
    </contour>
    <contour>
      <point x="389" y="866" type="line"/>
      <point x="389" y="866"/>
      <point x="413" y="838"/>
      <point x="413" y="803" type="curve" smooth="yes"/>
      <point x="413" y="768"/>
      <point x="359" y="732"/>
      <point x="359" y="732" type="curve"/>
      <point x="359" y="732"/>
      <point x="493" y="771"/>
      <point x="537" y="866" type="curve"/>
    </contour>
    <contour>
      <point x="389" y="866" type="line"/>
      <point x="389" y="866"/>
      <point x="413" y="838"/>
      <point x="413" y="803" type="curve" smooth="yes"/>
      <point x="413" y="768"/>
      <point x="359" y="732"/>
      <point x="359" y="732" type="curve"/>
      <point x="359" y="732"/>
      <point x="493" y="771"/>
      <point x="537" y="866" type="curve"/>
    </contour>
    <contour>
      <point x="389" y="866" type="line"/>
      <point x="389" y="866"/>
      <point x="413" y="838"/>
      <point x="413" y="803" type="curve" smooth="yes"/>
      <point x="413" y="768"/>
      <point x="359" y="732"/>
      <point x="359" y="732" type="curve"/>
      <point x="359" y="732"/>
      <point x="493" y="771"/>
      <point x="537" y="866" type="curve"/>
    </contour>
  </outline>
</glyph>
<glyph name="Egrave" format="1">
  <advance width="630"/>
  <unicode hex="00C8"/>
  <outline>
    <contour>
      <point x="327" y="866" type="line"/>
      <point x="327" y="866"/>
      <point x="303" y="838"/>
      <point x="303" y="803" type="curve" smooth="yes"/>
      <point x="303" y="768"/>
      <point x="357" y="732"/>
      <point x="357" y="732" type="curve"/>
      <point x="357" y="732"/>
      <point x="223" y="771"/>
      <point x="179" y="866" type="curve"/>
    </contour>
    <component base="E" yOffset="-1"/>
  </outline>
</glyph>
<glyph name="Ecircumflex" format="1">
  <advance width="630"/>
  <unicode hex="00CA"/>
  <outline>
    <contour>
      <point x="289" y="899" type="line"/>
      <point x="134" y="744" type="line"/>
      <point x="207" y="744" type="line"/>
      <point x="289" y="844" type="line"/>
      <point x="372" y="744" type="line"/>
      <point x="444" y="744" type="line"/>
    </contour>
    <component base="E" yOffset="-1"/>
  </outline>
</glyph>
<glyph name="Iacute" format="1">
  <advance width="305"/>
  <unicode hex="00CD"/>
  <outline>
    <contour>
      <point x="91" y="866" type="line"/>
      <point x="91" y="866"/>
      <point x="115" y="838"/>
      <point x="115" y="803" type="curve" smooth="yes"/>
      <point x="115" y="768"/>
      <point x="61" y="732"/>
      <point x="61" y="732" type="curve"/>
      <point x="61" y="732"/>
      <point x="195" y="771"/>
      <point x="239" y="866" type="curve"/>
    </contour>
    <component base="I" yOffset="-1"/>
  </outline>
</glyph>
<glyph name="Oacute" format="1">
  <advance width="897"/>
  <unicode hex="00D3"/>
  <outline>
    <contour>
      <point x="399" y="866" type="line"/>
      <point x="399" y="866"/>
      <point x="423" y="838"/>
      <point x="423" y="803" type="curve" smooth="yes"/>
      <point x="423" y="768"/>
      <point x="369" y="732"/>
      <point x="369" y="732" type="curve"/>
      <point x="369" y="732"/>
      <point x="503" y="771"/>
      <point x="547" y="866" type="curve"/>
    </contour>
    <component base="O" xOffset="20" yOffset="-1"/>
  </outline>
</glyph>
<glyph name="Ugrave" format="1">
  <advance width="696"/>
  <unicode hex="00D9"/>
  <outline>
    <contour>
      <point x="397" y="866" type="line"/>
      <point x="397" y="866"/>
      <point x="373" y="838"/>
      <point x="373" y="803" type="curve" smooth="yes"/>
      <point x="373" y="768"/>
      <point x="427" y="732"/>
      <point x="427" y="732" type="curve"/>
      <point x="427" y="732"/>
      <point x="293" y="771"/>
      <point x="249" y="866" type="curve"/>
    </contour>
    <contour>
      <point x="652" y="712" type="line"/>
      <point x="591" y="712" type="line"/>
      <point x="591" y="712" type="line"/>
      <point x="516" y="712" type="line"/>
      <point x="516" y="712" type="line"/>
      <point x="454" y="712" type="line"/>
      <point x="516" y="651" type="line"/>
      <point x="516" y="371" type="line"/>
      <point x="516" y="214" type="line"/>
      <point x="516" y="131"/>
      <point x="442" y="64"/>
      <point x="352" y="64" type="curve" smooth="yes"/>
      <point x="261" y="64"/>
      <point x="188" y="131"/>
      <point x="188" y="214" type="curve"/>
      <point x="188" y="371" type="line"/>
      <point x="188" y="651" type="line"/>
      <point x="249" y="712" type="line"/>
      <point x="188" y="712" type="line"/>
      <point x="188" y="712" type="line"/>
      <point x="112" y="712" type="line"/>
      <point x="112" y="712" type="line"/>
      <point x="51" y="712" type="line"/>
      <point x="112" y="651" type="line"/>
      <point x="112" y="225" type="line"/>
      <point x="112" y="221"/>
      <point x="112" y="218"/>
      <point x="112" y="214" type="curve" smooth="yes"/>
      <point x="112" y="96"/>
      <point x="219" y="0"/>
      <point x="352" y="0" type="curve" smooth="yes"/>
      <point x="484" y="0"/>
      <point x="592" y="96"/>
      <point x="592" y="214" type="curve" smooth="yes"/>
      <point x="592" y="219"/>
      <point x="591" y="224"/>
      <point x="591" y="229" type="curve"/>
      <point x="591" y="651" type="line"/>
    </contour>
  </outline>
</glyph>
<glyph name="Ucircumflex" format="1">
  <advance width="696"/>
  <unicode hex="00DB"/>
  <outline>
    <contour>
      <point x="349" y="899" type="line"/>
      <point x="194" y="744" type="line"/>
      <point x="267" y="744" type="line"/>
      <point x="349" y="844" type="line"/>
      <point x="432" y="744" type="line"/>
      <point x="504" y="744" type="line"/>
    </contour>
    <contour>
      <point x="652" y="712" type="line"/>
      <point x="591" y="712" type="line"/>
      <point x="591" y="712" type="line"/>
      <point x="516" y="712" type="line"/>
      <point x="516" y="712" type="line"/>
      <point x="454" y="712" type="line"/>
      <point x="516" y="651" type="line"/>
      <point x="516" y="371" type="line"/>
      <point x="516" y="214" type="line"/>
      <point x="516" y="131"/>
      <point x="442" y="64"/>
      <point x="352" y="64" type="curve" smooth="yes"/>
      <point x="261" y="64"/>
      <point x="188" y="131"/>
      <point x="188" y="214" type="curve"/>
      <point x="188" y="371" type="line"/>
      <point x="188" y="651" type="line"/>
      <point x="249" y="712" type="line"/>
      <point x="188" y="712" type="line"/>
      <point x="188" y="712" type="line"/>
      <point x="112" y="712" type="line"/>
      <point x="112" y="712" type="line"/>
      <point x="51" y="712" type="line"/>
      <point x="112" y="651" type="line"/>
      <point x="112" y="225" type="line"/>
      <point x="112" y="221"/>
      <point x="112" y="218"/>
      <point x="112" y="214" type="curve" smooth="yes"/>
      <point x="112" y="96"/>
      <point x="219" y="0"/>
      <point x="352" y="0" type="curve" smooth="yes"/>
      <point x="484" y="0"/>
      <point x="592" y="96"/>
      <point x="592" y="214" type="curve" smooth="yes"/>
      <point x="592" y="219"/>
      <point x="591" y="224"/>
      <point x="591" y="229" type="curve"/>
      <point x="591" y="651" type="line"/>
    </contour>
  </outline>
</glyph>
<glyph name="Yacute" format="1">
  <advance width="708"/>
  <unicode hex="00DD"/>
  <outline>
    <contour>
      <point x="309" y="866" type="line"/>
      <point x="309" y="866"/>
      <point x="333" y="838"/>
      <point x="333" y="803" type="curve" smooth="yes"/>
      <point x="333" y="768"/>
      <point x="279" y="732"/>
      <point x="279" y="732" type="curve"/>
      <point x="279" y="732"/>
      <point x="413" y="771"/>
      <point x="457" y="866" type="curve"/>
    </contour>
    <component base="Y" yOffset="-1"/>
  </outline>
</glyph>
<glyph name="ydieresis" format="1">
  <advance width="708"/>
  <unicode hex="00FF"/>
  <outline>
    <contour>
      <point x="500" y="821" type="line"/>
      <point x="439" y="882" type="line"/>
      <point x="439" y="882" type="line"/>
      <point x="378" y="821" type="line"/>
      <point x="378" y="821" type="line"/>
      <point x="439" y="760" type="line"/>
      <point x="439" y="760" type="line"/>
    </contour>
    <contour>
      <point x="320" y="821" type="line"/>
      <point x="259" y="882" type="line"/>
      <point x="259" y="882" type="line"/>
      <point x="198" y="821" type="line"/>
      <point x="198" y="821" type="line"/>
      <point x="259" y="760" type="line"/>
      <point x="259" y="760" type="line"/>
    </contour>
    <component base="y" yOffset="-1"/>
  </outline>
</glyph>
<glyph name="quotedblleft" format="1">
  <advance width="355"/>
  <unicode hex="201C"/>
  <outline>
    <contour>
      <point x="157" y="582" type="line" smooth="yes"/>
      <point x="157" y="582"/>
      <point x="133" y="620"/>
      <point x="133" y="655" type="curve" smooth="yes"/>
      <point x="133" y="690"/>
      <point x="157" y="746"/>
      <point x="157" y="746" type="curve" smooth="yes"/>
      <point x="157" y="746"/>
      <point x="53" y="677"/>
      <point x="9" y="582" type="curve"/>
    </contour>
    <contour>
      <point x="337" y="582" type="line"/>
      <point x="337" y="582"/>
      <point x="313" y="620"/>
      <point x="313" y="655" type="curve" smooth="yes"/>
      <point x="313" y="690"/>
      <point x="337" y="746"/>
      <point x="337" y="746" type="curve"/>
      <point x="337" y="746"/>
      <point x="233" y="677"/>
      <point x="189" y="582" type="curve"/>
    </contour>
  </outline>
</glyph>
<glyph name="quotedblbase" format="1">
  <advance width="417"/>
  <unicode hex="201E"/>
  <outline>
    <contour>
      <point x="250" y="80" type="line" smooth="yes"/>
      <point x="250" y="80"/>
      <point x="274" y="42"/>
      <point x="274" y="7" type="curve" smooth="yes"/>
      <point x="274" y="-28"/>
      <point x="250" y="-84"/>
      <point x="250" y="-84" type="curve" smooth="yes"/>
      <point x="250" y="-84"/>
      <point x="354" y="-15"/>
      <point x="397" y="80" type="curve"/>
    </contour>
    <contour>
      <point x="40" y="80" type="line" smooth="yes"/>
      <point x="40" y="80"/>
      <point x="64" y="42"/>
      <point x="64" y="7" type="curve" smooth="yes"/>
      <point x="64" y="-28"/>
      <point x="40" y="-84"/>
      <point x="40" y="-84" type="curve" smooth="yes"/>
      <point x="40" y="-84"/>
      <point x="144" y="-15"/>
      <point x="187" y="80" type="curve"/>
    </contour>
  </outline>
</glyph>
<glyph name="bullet" format="1">
  <advance width="265"/>
  <unicode hex="2022"/>
  <outline>
    <contour>
      <point x="212" y="377" type="line"/>
      <point x="212" y="377" type="line"/>
      <point x="126" y="463" type="line"/>
      <point x="126" y="463" type="line"/>
      <point x="40" y="377" type="line"/>
      <point x="40" y="377" type="line"/>
      <point x="126" y="291" type="line"/>
      <point x="126" y="291" type="line"/>
    </contour>
    <contour>
      <point x="126" y="377" type="line"/>
      <point x="126" y="377" type="line"/>
      <point x="126" y="377" type="line"/>
      <point x="126" y="377" type="line"/>
    </contour>
  </outline>
</glyph>
<glyph name="OE" format="1">
  <advance width="897"/>
  <outline>
    <contour>
      <point x="440" y="899" type="line"/>
      <point x="285" y="744" type="line"/>
      <point x="358" y="744" type="line"/>
      <point x="440" y="844" type="line"/>
      <point x="523" y="744" type="line"/>
      <point x="595" y="744" type="line"/>
    </contour>
    <component base="O" xOffset="20" yOffset="-1"/>
  </outline>
</glyph>
